<svg xmlns="http://www.w3.org/2000/svg" viewBox="0 0 44 50" stroke="none" xmlns:v="https://vecta.io/nano"><path d="M1.117 20.553l5.351 3.089c.192.111.406.165.621.165a1.27 1.27 0 0 0 .621-.165l5.351-3.089.022-.017c.081-.049.158-.108.227-.175l.03-.032a1.32 1.32 0 0 0 .158-.207c.007-.012.017-.022.022-.035a1.16 1.16 0 0 0 .108-.259l.015-.059c.022-.094.039-.19.039-.291v-3.089a3.36 3.36 0 0 1 5.025-2.9l2.675 1.545c.086.049.177.084.271.111l.059.017a1.31 1.31 0 0 0 .278.037c.022 0 .032-.005.041-.005.086 0 .173-.012.256-.035.015-.003.03-.005.044-.01a1.23 1.23 0 0 0 .264-.108c.007-.005.017-.005.025-.01l5.351-3.089a1.24 1.24 0 0 0 .621-1.074V4.69a1.24 1.24 0 0 0-.621-1.074L22.615.529c-.384-.222-.855-.222-1.239 0l-5.351 3.089-.022.017c-.081.049-.158.108-.227.175l-.03.032a1.32 1.32 0 0 0-.158.207c-.007.012-.017.022-.022.034a1.18 1.18 0 0 0-.108.259l-.015.059c-.022.094-.039.19-.039.291v3.089c0 1.192-.643 2.303-1.675 2.902a3.36 3.36 0 0 1-3.35 0L7.705 9.139c-.087-.049-.178-.084-.271-.111l-.059-.017c-.092-.022-.185-.034-.279-.037h-.042c-.089 0-.175.012-.259.034-.015.002-.027.005-.042.01a1.2 1.2 0 0 0-.263.109c-.007.005-.017.005-.025.01l-5.348 3.092a1.24 1.24 0 0 0-.621 1.074v6.178a1.24 1.24 0 0 0 .621 1.074v-.002z" fill="#2a6dce"/><path d="M30.262 22.097a3.36 3.36 0 0 1 3.35 0l2.675 1.545c.086.049.177.084.271.111l.059.017c.091.022.185.034.278.037.022 0 .032-.003.041-.005.086 0 .173-.012.256-.034.015-.003.03-.005.044-.01a1.3 1.3 0 0 0 .264-.108c.007-.005.017-.005.027-.01l5.351-3.089a1.24 1.24 0 0 0 .621-1.074v-6.179a1.24 1.24 0 0 0-.621-1.074l-5.348-3.09c-.384-.222-.855-.222-1.239 0l-5.351 3.089-.022.017c-.081.049-.158.108-.227.175l-.029.032a1.32 1.32 0 0 0-.158.207c-.007.012-.017.022-.022.035a1.18 1.18 0 0 0-.108.259l-.015.059c-.022.094-.039.19-.039.291v3.089c0 1.192-.643 2.303-1.675 2.902a3.36 3.36 0 0 1-3.35 0l-2.675-1.545c-.086-.049-.177-.084-.271-.111l-.059-.017a1.31 1.31 0 0 0-.278-.037h-.042c-.089 0-.175.012-.259.035-.015.003-.027.005-.042.01a1.23 1.23 0 0 0-.264.108c-.007.005-.017.005-.025.01l-5.351 3.089a1.24 1.24 0 0 0-.621 1.074v6.179a1.24 1.24 0 0 0 .621 1.074l5.351 3.089s.017.005.025.01c.084.047.173.084.264.108.015.005.03.005.044.01.084.02.17.032.256.035.01 0 .02.005.03.005.106 0 .197-.015.29-.037l.059-.017c.094-.027.185-.062.271-.111l2.675-1.545a3.36 3.36 0 0 1 5.025 2.9v3.089c0 .101.015.197.039.291l.015.059a1.2 1.2 0 0 0 .108.259l.022.034a1.26 1.26 0 0 0 .158.207l.029.032a1.28 1.28 0 0 0 .227.175c.007.005.012.012.022.017l5.351 3.089a1.24 1.24 0 0 0 .621.165 1.27 1.27 0 0 0 .621-.165l5.351-3.089a1.24 1.24 0 0 0 .621-1.074v-6.179a1.24 1.24 0 0 0-.621-1.074l-5.351-3.089s-.017-.005-.025-.01c-.084-.047-.173-.084-.264-.108-.015-.005-.027-.005-.042-.01-.086-.02-.172-.032-.261-.035h-.039c-.094 0-.187.015-.278.037l-.057.017c-.094.027-.185.062-.271.111l-2.675 1.545a3.36 3.36 0 0 1-5.023-2.902 3.36 3.36 0 0 1 1.675-2.9h-.01z" fill="#1dc19c"/><path d="M27.967 38.054l-5.351-3.089s-.017-.005-.025-.01a1.12 1.12 0 0 0-.264-.108c-.015-.005-.03-.005-.044-.01-.086-.02-.172-.032-.259-.035h-.042c-.094 0-.187.015-.278.037l-.057.017c-.094.027-.185.062-.271.111l-2.675 1.545a3.36 3.36 0 0 1-5.023-2.902v-3.09c0-.101-.015-.197-.039-.291l-.015-.059c-.027-.091-.062-.177-.108-.259l-.022-.035a1.26 1.26 0 0 0-.158-.207l-.03-.032c-.066-.066-.143-.123-.227-.175-.007-.005-.012-.012-.022-.017l-5.351-3.089c-.384-.222-.855-.222-1.239 0l-5.351 3.089a1.24 1.24 0 0 0-.621 1.074v6.179a1.24 1.24 0 0 0 .621 1.074l5.351 3.089.025.01c.084.047.17.084.261.108.015.005.03.007.044.01.084.02.17.032.256.035.01 0 .02.005.032.005.109 0 .2-.015.291-.037l.059-.017c.094-.027.185-.062.271-.111l2.675-1.545a3.36 3.36 0 0 1 5.025 2.9v3.089c0 .101.015.197.039.291l.015.059c.027.091.062.177.108.259l.022.035a1.26 1.26 0 0 0 .158.207l.03.032c.067.067.143.123.227.175.007.005.012.012.022.017l5.351 3.089c.192.111.406.165.621.165a1.27 1.27 0 0 0 .621-.165l5.351-3.089a1.24 1.24 0 0 0 .621-1.074V39.13a1.24 1.24 0 0 0-.621-1.074l-.004-.002z" fill="#1796e2"/></svg>